@startuml
title "Storage"
scale 1.0


class RocksDBColumnarKeyValueStorage {

}

class RocksDBKeyValueStorage {
    
}

class RocksDBKeyValueStorageFactory {
    +create()
}

class KeyValueStorageProviderBuilder {
    +withStorageFactory()
    +build()
}

RocksDBKeyValueStorage --o RocksDBKeyValueStorageFactory
RocksDBColumnarKeyValueStorage --o RocksDBKeyValueStorageFactory

RocksDBKeyValueStorageFactory --o KeyValueStorageProviderBuilder
KeyValueStorageProviderBuilder -> KeyValueStorageProvider

interface StorageProvider {
    +createBlockchainStorage()
    +createWorldStateStorage()
    +createWorldStatePreimageStorage()
    +getStorageBySegmentIdentifier()
    +...private...()
    +close()
}

class KeyValueStorageProvider {
    -storageCreator:Function<SegmentIdentifier, KeyValueStorage>
    -worldStatePreimageStorage:KeyValueStorage  
    -privateWorldStatePreimageStorage:KeyValueStorage  
    -storageInstances:Map<SegmentIdentifier, KeyValueStorage>  
}
StorageProvider <|..KeyValueStorageProvider


class KeyValueStoragePrefixedKeyBlockchainStorage {
    -keyValueStorage:RocksDB_BLOCKCHAIN
    -blockHeaderFunctions
}

class WorldStateKeyValueStorage {
    -keyValueStorage:RocksDB_WORLD_STATE
    -nodeAddedListeners:Subscribers
    -lock:ReentrantLock
}

class WorldStatePreimageKeyValueStorage {
    -keyValueStorage:LimitedInMemoryKeyValueStorage
}

KeyValueStorageProvider o.. KeyValueStoragePrefixedKeyBlockchainStorage
KeyValueStorageProvider o.. WorldStateKeyValueStorage
KeyValueStorageProvider o.. WorldStatePreimageKeyValueStorage

KeyValueStoragePrefixedKeyBlockchainStorage ..|> BlockchainStorage
WorldStateKeyValueStorage ..|> WorldStateStorage
WorldStatePreimageKeyValueStorage ..|> WorldStatePreimageStorage

interface BlockchainStorage {
    +getChainHead()
    +getForkHeads()
    +getBlockHeader()
    +getBlockBody()
    +getTransactionReceipts()
    +getBlockHash()
    +getTotalDifficulty()
    +getTransactionLocation()
    +updater()
}

interface BlockchainStorage.Updater {
    +putBlockHeader()
    +putBlockBody()
    +putTransactionLocation()
    +putTransactionReceipts()
    +putBlockHash()
    +putTotalDifficulty()
    +setChainHead()
    +setForkHeads()
    +removeBlockHash()
    +removeTransactionLocation()
    +commit()
    +rollback()
}
BlockchainStorage *.. BlockchainStorage.Updater

interface WorldStateStorage {
    +getCode()
    +getAccountTrieNodeData()
    +getAccountStateTrieNode()
    +getAccountStorageTrieNode()
    +getNodeData()
    +isWorldStateAvailable()
    +contains()
    +clear()
    +updater()
    +......()
}

interface WorldStateStorage.Updater {
    +putCode()
    +saveWorldState()
    +putAccountStateTrieNode()
    +removeAccountStateTrieNode()
    +putAccountStorageTrieNode()
    +commit()
    +rollback()
}
WorldStateStorage *.. WorldStateStorage.Updater

interface WorldStatePreimageStorage {
    +getStorageTrieKeyPreimage()
    +getAccountTrieKeyPreimage()
    +updater()
}

interface WorldStatePreimageStorage.Updater {
    +putStorageTrieKeyPreimage()
    +putAccountTrieKeyPreimage()
    +commit()
    +rollback()
}
WorldStatePreimageStorage *.. WorldStatePreimageStorage.Updater

interface Blockchain {
    +getChainHead()
    +getChainHeadBlockNumber()
    +getChainHeadHash()
    +getGenesisBlock()
    +getBlockByNumber()
    +getBlockByHash()
    +......()
}

interface MutableBlockchain {
    +appendBlock()
    +rewindToBlock()
}

class DefaultBlockchain {
    -BlockchainStorage
    -BlockAddedObserver:Subscribers
    -ChainReorgObserver:Subscribers
    -DefaultBlockchain()
    +createMutable()
    +create()
}

Blockchain <|.. MutableBlockchain
MutableBlockchain <|-- DefaultBlockchain

interface WorldStateArchive {
    +get()
    +isWorldStateAvailable()
    +getMutable()
    +getNodeData()
    +getAccountProof()
}
class DefaultWorldStateArchive {
    -worldStateStorage:WorldStateStorage
    -preimageStorage:WorldStatePreimageStorage
    -worldStateProof:WorldStateProofProvider
}
WorldStateArchive <|.. DefaultWorldStateArchive

class ProtocolContext {
    -blockchain:MutableBlockchain
    -worldStateArchive:WorldStateArchive
    -consensusContext:ConsensusContext
    +getBlockchain()
    +getWorldStateArchive()
    +getConsensusContext()
}

DefaultBlockchain --o ProtocolContext
DefaultWorldStateArchive --o ProtocolContext

class BesuControllerBuilder {
    +build()
}

KeyValueStorageProvider -> BesuControllerBuilder
BesuControllerBuilder -> ProtocolContext

@enduml